<svg version="1.1" viewBox="0 0 24 24" xmlns="http://www.w3.org/2000/svg">
	<circle cx="12" cy="12" r="12" fill="#007acc"/>
	<path d="m7.363 11.129h2.524l-1.788-1.788c-.682 0-1.235-.553-1.235-1.242a1.235 1.235 0 011.235-1.236c.688 0 1.242.553 1.242 1.235l1.788 1.789v-2.524a1.242 1.242 0 010-1.748a1.222 1.222 0 011.741 0c.479.479.479 1.262 0 1.748v2.524l1.795-1.789a1.235 1.235 0 012.47 0c0 .688-.553 1.242-1.235 1.242l-1.789 1.789h2.524a1.242 1.242 0 011.748 0c.486.479.486 1.262 0 1.741c-.479.479-1.262.479-1.748 0h-2.524l1.789 1.795c.682 0 1.235.547 1.235 1.235a1.235 1.235 0 01-1.235 1.235c-.688 0-1.235-.553-1.235-1.235l-1.795-1.789v2.524c.479.486.479 1.269 0 1.748c-.479.486-1.262.486-1.741 0a1.242 1.242 0 010-1.748v-2.522l-1.788 1.789c0 .682-.553 1.235-1.242 1.235a1.235 1.235 0 010-2.47l1.788-1.796h-2.524c-.486.479-1.269.479-1.748 0a1.222 1.222 0 010-1.741a1.242 1.242 0 011.748 0z" fill="#ffffff"/>
</svg>
